<svg xmlns="http://www.w3.org/2000/svg" version="1.1" xmlns:xlink="http://www.w3.org/1999/xlink" xmlns:svgjs="http://svgjs.dev/svgjs" width="150" height="150" viewBox="0 0 1500 1500"><g transform="matrix(1,0,0,1,-0.21332335329316265,-0.21332335329350371)"><svg viewBox="0 0 334 334" data-background-color="#ffffff" preserveAspectRatio="xMidYMid meet" height="1500" width="1500" xmlns="http://www.w3.org/2000/svg" xmlns:xlink="http://www.w3.org/1999/xlink"><g id="tight-bounds" transform="matrix(1,0,0,1,0.04749999999998522,0.04750000000001364)"><svg viewBox="0 0 333.90454557049503 333.90454557049503" height="333.90454557049503" width="333.90454557049503"><g><svg></svg></g><g><svg viewBox="0 0 333.90454557049503 333.90454557049503" height="333.90454557049503" width="333.90454557049503"><g><path d="M0 166.952c0-92.205 74.747-166.952 166.952-166.952 92.205 0 166.952 74.747 166.953 166.952 0 92.205-74.747 166.952-166.953 166.953-92.205 0-166.952-74.747-166.952-166.953zM166.952 326.949c88.364 0 159.997-71.633 159.997-159.997 0-88.364-71.633-159.997-159.997-159.997-88.364 0-159.997 71.633-159.997 159.997 0 88.364 71.633 159.997 159.997 159.997z" data-fill-palette-color="tertiary" fill="#6575a8" stroke="transparent"></path><ellipse rx="160.27418187383762" ry="160.27418187383762" cx="166.95227278524752" cy="166.95227278524752" fill="#6575a8" stroke="transparent" stroke-width="0" fill-opacity="1" data-fill-palette-color="tertiary"></ellipse></g><g transform="matrix(1,0,0,1,92.45555616218128,71.17305217166896)"><svg viewBox="0 0 148.99343324613247 191.55844122715712" height="191.55844122715712" width="148.99343324613247"><g><svg viewBox="0 0 148.99343324613247 191.55844122715712" height="191.55844122715712" width="148.99343324613247"><g><svg viewBox="0 0 213.15844122715714 274.0543515661602" height="191.55844122715712" width="148.99343324613247"><g transform="matrix(1,0,0,1,0,163.7135114015142)"><svg viewBox="0 0 213.15844122715714 110.34084016464604" height="110.34084016464604" width="213.15844122715714"><g id="textblocktransform"><svg viewBox="0 0 213.15844122715714 110.34084016464604" height="110.34084016464604" width="213.15844122715714" id="textblock"><g><svg viewBox="0 0 213.15844122715714 110.34084016464604" height="110.34084016464604" width="213.15844122715714"><g transform="matrix(1,0,0,1,0,0)"><svg width="213.15844122715714" viewBox="0 -34.96 95.45 49.41" height="110.34084016464604" data-palette-color="#ffffff"><path d="M35.94 0L35.94 0 32.23 0.34Q29.54-16.5 26.42-28.52L26.42-28.52Q24.8-24.71 22.88-17.8 20.95-10.89 20.21-8.84L20.21-8.84Q20.12-8.84 19.9-8.81 19.68-8.79 19.53-8.79L19.53-8.79Q18.85-8.79 17.29-8.94 15.72-9.08 15.28-9.08L15.28-9.08Q15.23-10.5 12.79-18.53 10.35-26.56 9.86-28.81L9.86-28.81Q8.98-20.9 3.03 0L3.03 0 0-0.29Q0.68-5.62 3.37-17.04 6.05-28.47 6.54-34.72L6.54-34.72Q7.42-34.81 7.96-34.81L7.96-34.81Q8.45-34.81 11.57-34.42L11.57-34.42Q12.26-34.33 13.55-30 14.84-25.68 16.16-20.51 17.48-15.33 17.82-14.4L17.82-14.4Q19.19-17.77 21.12-25.34 23.05-32.91 23.83-34.96L23.83-34.96Q24.61-34.91 28.76-34.52L28.76-34.52Q30.03-29.59 31.23-23.88 32.42-18.16 33.81-10.89 35.21-3.61 35.94 0ZM39.69-21.09L39.69-21.09 38.72-23.58Q39.99-24.85 41.94-25.61 43.89-26.37 45.8-26.37L45.8-26.37Q54.05-26.37 54.05-12.11L54.05-12.11Q54.05-10.16 53.83-6.35 53.61-2.54 53.61-0.63L53.61-0.63Q53.22 0.88 52.1 0.88L52.1 0.88Q51.22 0.88 50.49 0 49.75-0.88 49.75-1.95L49.75-1.95Q49.75-2.29 49.8-2.44L49.8-2.44Q46.77 0.49 43.36 0.49L43.36 0.49Q40.77 0.49 38.84-1.39 36.91-3.27 36.91-5.96L36.91-5.96Q36.91-10.5 40.45-14.16 43.99-17.82 48.48-17.82L48.48-17.82Q48.68-17.82 48.87-17.8 49.07-17.77 49.34-17.72 49.61-17.68 49.75-17.68L49.75-17.68Q49.36-23.39 45.21-23.39L45.21-23.39Q42.77-23.39 39.69-21.09ZM49.9-5.81L49.9-5.81Q50-9.23 50-10.99L50-10.99Q50-12.45 49.9-15.09L49.9-15.09 49.51-15.09Q46.04-15.04 43.19-12.5 40.33-9.96 40.33-6.35L40.33-6.35Q40.33-4.79 41.28-3.86 42.23-2.93 43.6-2.93L43.6-2.93Q45.75-2.93 49.9-5.81ZM61.52 14.45L61.52 14.45 58.49 12.74Q60.49 9.28 65.57-0.44L65.57-0.44Q61.62-3.96 59.52-11.08 57.42-18.21 56.98-25.34L56.98-25.34 59.81-25.2Q60.05-24.02 60.86-19.85 61.66-15.67 62.15-13.67 62.64-11.67 63.89-8.67 65.13-5.66 66.74-3.61L66.74-3.61Q73.53-16.65 73.53-25L73.53-25 73.53-25.54Q76.07-25.15 77.34-24.61L77.34-24.61Q76.56-19.48 74.9-14.16 73.24-8.84 70.75-3.44 68.26 1.95 66.33 5.62 64.4 9.28 61.52 14.45ZM81.1-21.09L81.1-21.09 80.12-23.58Q81.39-24.85 83.34-25.61 85.3-26.37 87.2-26.37L87.2-26.37Q95.45-26.37 95.45-12.11L95.45-12.11Q95.45-10.16 95.23-6.35 95.01-2.54 95.01-0.63L95.01-0.63Q94.62 0.88 93.5 0.88L93.5 0.88Q92.62 0.88 91.89 0 91.15-0.88 91.15-1.95L91.15-1.95Q91.15-2.29 91.2-2.44L91.2-2.44Q88.18 0.49 84.76 0.49L84.76 0.49Q82.17 0.49 80.24-1.39 78.31-3.27 78.31-5.96L78.31-5.96Q78.31-10.5 81.85-14.16 85.39-17.82 89.89-17.82L89.89-17.82Q90.08-17.82 90.28-17.8 90.47-17.77 90.74-17.72 91.01-17.68 91.15-17.68L91.15-17.68Q90.76-23.39 86.61-23.39L86.61-23.39Q84.17-23.39 81.1-21.09ZM91.3-5.81L91.3-5.81Q91.4-9.23 91.4-10.99L91.4-10.99Q91.4-12.45 91.3-15.09L91.3-15.09 90.91-15.09Q87.44-15.04 84.59-12.5 81.73-9.96 81.73-6.35L81.73-6.35Q81.73-4.79 82.68-3.86 83.64-2.93 85-2.93L85-2.93Q87.15-2.93 91.3-5.81Z" opacity="1" transform="matrix(1,0,0,1,0,0)" fill="#ffffff" class="wordmark-text-0" data-fill-palette-color="quaternary" id="text-0"></path></svg></g></svg></g></svg></g></svg></g><g transform="matrix(1,0,0,1,40.71326227438702,0)"><svg viewBox="0 0 131.7319166783831 137.66468721880523" height="137.66468721880523" width="131.7319166783831"><g><svg xmlns="http://www.w3.org/2000/svg" data-name="Layer 1" viewBox="0.5141786871416947 0.4255908535043956 3.9715911618995454 4.150458513396793" x="0" y="0" height="137.66468721880523" width="131.7319166783831" class="icon-icon-0" data-fill-palette-color="quaternary" id="icon-0"><path d="M4.146 1.877a0.285 0.285 0 0 0-0.105 0.238 0.062 0.062 0 0 0 0.068 0.052 0.123 0.123 0 0 0 0.073-0.024 0.32 0.32 0 0 0 0.101-0.202 0.076 0.076 0 0 0-0.086-0.088A0.135 0.135 0 0 0 4.146 1.877Zm0.056 0.1c-0.019 0.03-0.038 0.059-0.059 0.088-0.003 0.003-0.015 0.002-0.02-0.002a0.027 0.027 0 0 1-0.009-0.021 0.104 0.104 0 0 1 0.069-0.088c0.005-0.002 0.012 0.007 0.019 0.011Z" fill="#ffffff" data-fill-palette-color="quaternary"></path><path d="M4.245 1.421l0-0.012A0.07 0.07 0 0 0 4.198 1.345a0.156 0.156 0 0 0-0.077 0.005 0.237 0.237 0 0 0-0.119 0.156 0.088 0.088 0 0 0 0.016 0.092 0.067 0.067 0 0 0 0.084 0.018A0.288 0.288 0 0 0 4.245 1.421Zm-0.166 0.095a0.104 0.104 0 0 1 0.06-0.081l0.01 0c0.003 0.007 0.009 0.017 0.006 0.021a0.733 0.733 0 0 1-0.044 0.07c-0.004 0.005-0.013 0.005-0.02 0.008C4.087 1.528 4.078 1.521 4.079 1.516Z" fill="#ffffff" data-fill-palette-color="quaternary"></path><path d="M0.625 3.612c0.193 0.006 0.387 0.011 0.581 0.015 0.025 0.001 0.051 0 0.075 0.003 0.026 0.003 0.038 0.024 0.04 0.05a0.044 0.044 0 0 1-0.01 0.032 0.029 0.029 0 0 1-0.03 0.003 0.33 0.33 0 0 0-0.215-0.075 1.051 1.051 0 0 0-0.307 0.038 0.357 0.357 0 0 0-0.158 0.095A0.258 0.258 0 0 0 0.55 3.861a0.325 0.325 0 0 0-0.019 0.154c0.008 0.076 0.017 0.153 0.023 0.23a0.204 0.204 0 0 0 0.134 0.189 0.79 0.79 0 0 0 0.338 0.066 0.396 0.396 0 0 0 0.328-0.144c0.011-0.015 0.026-0.011 0.033 0.008a0.886 0.886 0 0 0 0.033 0.092 0.179 0.179 0 0 0 0.05 0.064 0.321 0.321 0 0 0 0.221 0.054 0.209 0.209 0 0 0 0.159-0.09l0.015-0.017a0.037 0.037 0 0 1 0.049-0.008A0.247 0.247 0 0 0 2.231 4.43c0.028-0.025 0.038-0.023 0.067 0.003a0.193 0.193 0 0 0 0.273 0.03c0.016-0.01 0.031-0.021 0.047-0.03a0.041 0.041 0 0 1 0.06 0.013l0.015 0.019a0.247 0.247 0 0 0 0.338 0.016l0.024-0.026c0.016-0.018 0.03-0.017 0.047 0.002a0.218 0.218 0 0 0 0.248 0.069 0.19 0.19 0 0 0 0.107-0.082c0.027-0.042 0.034-0.042 0.074-0.014a0.409 0.409 0 0 0 0.169 0.074 0.807 0.807 0 0 0 0.328 0.011c0.051-0.014 0.102-0.03 0.153-0.044a0.315 0.315 0 0 0 0.245-0.275c0.003-0.016 0.009-0.032 0.012-0.048a0.523 0.523 0 0 0-0.168-0.508l-0.01-0.007c-0.004-0.006-0.01-0.015-0.008-0.02a0.022 0.022 0 0 1 0.016-0.014c0.019-0.001 0.038 0.001 0.057 0.001a0.067 0.067 0 0 0 0.069-0.053 0.327 0.327 0 0 0 0.017-0.097c-0.004-0.08-0.015-0.159-0.023-0.238a0.08 0.08 0 0 0-0.074-0.082c-0.023-0.004-0.046-0.002-0.069-0.004A0.106 0.106 0 0 1 4.223 3.12a0.112 0.112 0 0 1 0.011-0.033c0.022-0.029 0.046-0.055 0.069-0.083a0.745 0.745 0 0 0 0.15-0.398c0.003-0.033 0.006-0.067 0.008-0.101 0.009-0.138 0.024-0.276 0.025-0.413 0.001-0.159-0.01-0.319-0.02-0.479-0.004-0.075-0.015-0.151-0.023-0.225a1.081 1.081 0 0 1-0.013-0.126 1.396 1.396 0 0 0-0.062-0.358A1.033 1.033 0 0 0 4.298 0.719 0.43 0.43 0 0 0 4.068 0.501a0.853 0.853 0 0 0-0.513-0.06C3.518 0.449 3.482 0.46 3.446 0.471a0.493 0.493 0 0 0-0.359 0.358 0.71 0.71 0 0 0-0.027 0.132c-0.011 0.14-0.022 0.281-0.027 0.422-0.005 0.137-0.006 0.274-0.006 0.41a3.987 3.987 0 0 0 0.074 0.928 0.447 0.447 0 0 0 0.128 0.271 0.811 0.811 0 0 0 0.089 0.093c-0.04 0.038-0.085-0.002-0.127 0.006a0.304 0.304 0 0 1-0.044 0.001c-0.123 0.006-0.246 0.012-0.369 0.017a0.481 0.481 0 0 1-0.088-0.006C2.684 3.102 2.674 3.082 2.676 3.077c0.011-0.026 0.026-0.049 0.04-0.074a1.83 1.83 0 0 0 0.193-0.481 2.787 2.787 0 0 0 0.054-0.353c0.009-0.123 0-0.249-0.002-0.373h0.004c-0.001-0.124 0.002-0.249-0.005-0.373-0.006-0.107-0.021-0.214-0.036-0.321a0.519 0.519 0 0 0-0.036-0.142A0.525 0.525 0 0 0 2.636 0.688 2.523 2.523 0 0 0 2.132 0.502 2.405 2.405 0 0 0 1.5 0.462 1.349 1.349 0 0 0 1.035 0.57 0.847 0.847 0 0 0 0.67 0.894a0.476 0.476 0 0 0-0.061 0.113A1.633 1.633 0 0 0 0.526 1.443c-0.011 0.206 0.005 0.413 0.009 0.619a1.418 1.418 0 0 0 0.034 0.276c0.025 0.114 0.063 0.225 0.095 0.337a0.429 0.429 0 0 0 0.202 0.259c0.096 0.057 0.195 0.108 0.292 0.162 0.005 0.003 0.007 0.012 0.011 0.019a0.065 0.065 0 0 1-0.015 0.01A0.074 0.074 0 0 1 1.132 3.127Q0.895 3.126 0.659 3.124a0.71 0.71 0 0 0-0.075 0.002A0.061 0.061 0 0 0 0.522 3.192c-0.004 0.097-0.007 0.193-0.008 0.29C0.514 3.572 0.547 3.609 0.625 3.612Zm0.692 0.628a0.21 0.21 0 0 1-0.148 0.17 0.673 0.673 0 0 1-0.193 0.021 0.507 0.507 0 0 1-0.259-0.06 0.183 0.183 0 0 1-0.095-0.164C0.621 4.122 0.619 4.037 0.615 3.952a0.168 0.168 0 0 1 0.076-0.157 0.491 0.491 0 0 1 0.254-0.077 1.06 1.06 0 0 1 0.193 0.006 0.218 0.218 0 0 1 0.192 0.214A0.879 0.879 0 0 1 1.317 4.24Zm0.078-0.478c-0.001-0.102 0.008-0.133 0.031-0.123 0.041 0.019 0.026 0.062 0.031 0.095q0.021 0.15 0.037 0.301a0.031 0.031 0 0 1-0.015 0.025 0.03 0.03 0 0 1-0.025-0.015A1.007 1.007 0 0 1 1.395 3.762Zm0.371 0.705a0.181 0.181 0 0 1-0.205 0.017 0.19 0.19 0 0 1-0.1-0.178c-0.001-0.12 0.035-0.169 0.134-0.194a0.192 0.192 0 0 1 0.221 0.116A0.203 0.203 0 0 1 1.766 4.467ZM1.558 3.927L1.561 3.918l0.004 0.009Zm0.044-0.24c-0.007-0.04 0.002-0.051 0.038-0.052 0.007 0 0.014 0 0.031 0.001 0.039 0.002 0.059 0.016 0.067 0.067 0.017 0.113 0.03 0.226 0.044 0.339 0.001 0.007-0.013 0.023-0.019 0.022a0.357 0.357 0 0 1-0.083-0.026 0.061 0.061 0 0 1-0.023-0.039C1.638 3.895 1.62 3.791 1.602 3.687Zm0.213 0.036L1.821 3.707 1.826 3.717l-0.007 0.017Zm0.026 0.178c0-0.012 0-0.024 0-0.035l0.005-0.002L1.848 3.9ZM1.905 3.698a0.048 0.048 0 0 1 0.007-0.033 0.062 0.062 0 0 1 0.038-0.017c0.008-0.001 0.017 0.012 0.025 0.019l0.003 0.012 0.028 0.326c0-0.003 0.001 0.006-0.001 0.013C2.002 4.029 1.998 4.043 1.991 4.046c-0.006 0.002-0.022-0.007-0.025-0.015a0.65 0.65 0 0 1-0.036-0.115C1.918 3.844 1.912 3.771 1.905 3.698Zm0.223 0.72a0.162 0.162 0 0 1-0.168-0.022 0.079 0.079 0 0 1-0.022-0.028A0.202 0.202 0 0 1 1.969 4.164a0.142 0.142 0 0 1 0.184-0.006c0.035 0.026 0.041 0.045 0.041 0.132A0.113 0.113 0 0 1 2.128 4.418Zm0.004-0.404a0.033 0.033 0 0 1-0.018 0.025 0.029 0.029 0 0 1-0.025-0.016 1.22 1.22 0 0 1-0.034-0.341l0.002-0.012c0.007-0.008 0.016-0.022 0.023-0.02 0.012 0.002 0.031 0.013 0.034 0.022 0.009 0.052 0.016 0.105 0.02 0.158a0.211 0.211 0 0 1-0.003 0.049C2.132 3.94 2.134 3.977 2.132 4.014Zm0.087 0.067L2.204 4.011l-0.003-0.012c-0.014-0.08-0.009-0.121 0.006-0.106 0.028 0.029 0.011 0.068 0.018 0.103l0.003 0.031Zm0.072-0.09c-0.007-0.093-0.013-0.187-0.017-0.281-0.002-0.052 0.017-0.07 0.066-0.073a0.048 0.048 0 0 1 0.056 0.047c0.006 0.061 0.009 0.122 0.013 0.193 0 0.044 0.003 0.097 0.001 0.15a0.06 0.06 0 0 1-0.056 0.062 0.04 0.04 0 0 1-0.045-0.027A0.279 0.279 0 0 1 2.291 3.991Zm0.248 0.421a0.233 0.233 0 0 1-0.042 0.015c-0.132 0.03-0.184-0.045-0.196-0.179a0.085 0.085 0 0 1 0.039-0.081A0.186 0.186 0 0 1 2.541 4.163a0.14 0.14 0 0 1 0.067 0.124A0.125 0.125 0 0 1 2.539 4.412Zm-0.067-0.732a0.046 0.046 0 0 1 0.041-0.048 0.052 0.052 0 0 1 0.056 0.048c0.003 0.016 0.004 0.033 0.006 0.05q0.015 0.148 0.03 0.295c0.003 0.024 0.009 0.053-0.017 0.063A0.071 0.071 0 0 1 2.499 4.037c-0.01-0.057-0.017-0.114-0.024-0.172a0.729 0.729 0 0 1-0.001-0.074H2.472C2.472 3.754 2.47 3.717 2.472 3.68Zm0.211 0.375a0.334 0.334 0 0 1-0.026-0.094c-0.006-0.09-0.01-0.18-0.011-0.271 0-0.04 0.02-0.056 0.057-0.057a0.046 0.046 0 0 1 0.053 0.049c0.003 0.037 0.005 0.074 0.007 0.111l0.012 0.208a0.062 0.062 0 0 1-0.045 0.072A0.032 0.032 0 0 1 2.683 4.055Zm0.336 0.303a0.148 0.148 0 0 1-0.265 0.059 0.23 0.23 0 0 1-0.055-0.12 0.137 0.137 0 0 1 0.092-0.167 0.189 0.189 0 0 1 0.161 0.002c0.069 0.036 0.085 0.059 0.081 0.159C3.031 4.303 3.027 4.331 3.019 4.358Zm-0.19-0.669a0.047 0.047 0 0 1 0.051-0.051c0.039-0.002 0.066 0.014 0.069 0.048q0.009 0.148 0.01 0.297a0.061 0.061 0 0 1-0.041 0.065 0.059 0.059 0 0 1-0.077-0.051c-0.008-0.057-0.01-0.115-0.015-0.172l0.004 0C2.83 3.779 2.827 3.734 2.829 3.689Zm0.234 0.41c-0.02 0.001-0.033-0.021-0.033-0.043-0.002-0.099-0.002-0.198-0.003-0.297a0.562 0.562 0 0 1 0.002-0.086 0.05 0.05 0 0 1 0.028-0.031 0.025 0.025 0 0 1 0.034 0.021c0.007 0.04 0.021 0.062 0.06 0.04 0.005-0.003 0.021 0.009 0.025 0.017a0.228 0.228 0 0 1 0.007 0.049c0.002 0.029-0.016 0.032-0.035 0.034-0.031 0.004-0.043 0.026-0.041 0.061 0.004 0.049 0.01 0.099 0.012 0.148a0.11 0.11 0 0 1-0.011 0.059A0.065 0.065 0 0 1 3.063 4.099Zm0.223 0.354a0.168 0.168 0 0 1-0.179-0.177c-0.002-0.119 0.054-0.181 0.163-0.18 0.099 0.001 0.157 0.071 0.162 0.196A0.145 0.145 0 0 1 3.286 4.453ZM3.188 3.913a0.068 0.068 0 0 1 0.008-0.022 0.075 0.075 0 0 1 0.009 0.019 0.394 0.394 0 0 1 0.003 0.04 0.105 0.105 0 0 1 0 0.022c-0.001 0.005-0.006 0.009-0.01 0.014l-0.005-0.011C3.191 3.954 3.189 3.934 3.188 3.913Zm0.063-0.206c-0.005-0.051 0.022-0.074 0.069-0.07a0.05 0.05 0 0 1 0.049 0.042c0.008 0.041 0.011 0.082 0.018 0.129-0.007 0.06-0.013 0.125-0.023 0.19a0.049 0.049 0 0 1-0.028 0.033c-0.02 0.007-0.034-0.011-0.044-0.03l-0.005-0.011C3.275 3.896 3.26 3.802 3.251 3.708Zm0.193 0.039A0.411 0.411 0 0 1 3.44 3.672a0.039 0.039 0 0 1 0.035-0.04c0.026-0.003 0.052-0.003 0.073-0.004 0.024 0.003 0.042 0.003 0.06 0.007 0.005 0.001 0.01 0.01 0.014 0.015l-0.004 0.009a0.387 0.387 0 0 0-0.13 0.109 0.029 0.029 0 0 1-0.028 0.007A0.045 0.045 0 0 1 3.444 3.746ZM4.32 3.822c0.016 0.043 0.029 0.087 0.043 0.132a0.422 0.422 0 0 1-0.002 0.211 0.92 0.92 0 0 1-0.03 0.094 0.174 0.174 0 0 1-0.11 0.117 0.979 0.979 0 0 1-0.37 0.074A0.481 0.481 0 0 1 3.604 4.379 0.225 0.225 0 0 1 3.531 4.285a1.042 1.042 0 0 1-0.06-0.255 0.271 0.271 0 0 1 0.076-0.223A0.252 0.252 0 0 1 3.703 3.717c0.108-0.015 0.216-0.04 0.325-0.048A0.529 0.529 0 0 1 4.209 3.7 0.184 0.184 0 0 1 4.32 3.822Zm0.075-2.199a0.869 0.869 0 0 0 0.003 0.125 1.368 1.368 0 0 1-0.027 0.474 0.2 0.2 0 0 1-0.324 0.128 0.305 0.305 0 0 1-0.105-0.176 2.307 2.307 0 0 1-0.059-0.57c0.003-0.087-0.001-0.175 0.003-0.262a0.761 0.761 0 0 1 0.025-0.16A0.257 0.257 0 0 1 4.082 0.997a0.192 0.192 0 0 1 0.259 0.165A2.757 2.757 0 0 1 4.395 1.623Zm-1.287 0.593c-0.003-0.129-0.004-0.257-0.005-0.386h0.002c-0.001-0.124-0.003-0.249-0.003-0.373a0.929 0.929 0 0 1 0.005-0.099 0.19 0.19 0 0 1 0.104-0.151 0.135 0.135 0 0 1 0.189 0.056 1.159 1.159 0 0 1 0.102 0.264 1.478 1.478 0 0 1 0.006 0.558 0.873 0.873 0 0 1-0.1 0.275 0.169 0.169 0 0 1-0.199 0.074 0.132 0.132 0 0 1-0.083-0.095A0.591 0.591 0 0 1 3.108 2.216Zm0.046 0.451c-0.008-0.045-0.016-0.09-0.023-0.135-0.003-0.02 0.02-0.041 0.037-0.034a0.23 0.23 0 0 0 0.154 0.015 0.209 0.209 0 0 0 0.142-0.112 1.11 1.11 0 0 0 0.127-0.447c0.006-0.108-0.001-0.217-0.005-0.325a1.04 1.04 0 0 0-0.116-0.391 0.193 0.193 0 0 0-0.25-0.112c-0.025 0.008-0.049 0.022-0.074 0.029-0.006 0.002-0.023-0.013-0.022-0.019A0.875 0.875 0 0 1 3.189 0.787c0.025-0.051 0.04-0.11 0.089-0.14A1.206 1.206 0 0 1 3.439 0.558 0.737 0.737 0 0 1 3.908 0.54 0.574 0.574 0 0 1 4.2 0.703a0.215 0.215 0 0 1 0.069 0.113 0.474 0.474 0 0 0 0.033 0.08A0.152 0.152 0 0 1 4.307 0.932c-0.014 0.002-0.03 0.009-0.042 0.004A0.278 0.278 0 0 0 4.042 0.93a0.302 0.302 0 0 0-0.193 0.211 1.347 1.347 0 0 0-0.037 0.348c-0.001 0.042 0.001 0.084 0.001 0.125a2.285 2.285 0 0 0 0.058 0.548 0.581 0.581 0 0 0 0.038 0.131 0.273 0.273 0 0 0 0.418 0.128c0.015-0.011 0.03-0.025 0.045-0.036l0.011 0.001c0.004 0.006 0.011 0.017 0.009 0.021a0.297 0.297 0 0 1-0.059 0.088 0.908 0.908 0 0 1-0.161 0.093 0.314 0.314 0 0 1-0.256 0.012c-0.022-0.009-0.046-0.012-0.06 0.015-0.011 0.021 0.008 0.055 0.04 0.065A0.441 0.441 0 0 0 4.261 2.64c0.016-0.01 0.03-0.026 0.047-0.035 0.016-0.009 0.039-0.022 0.051-0.015 0.024 0.013 0.016 0.044 0.013 0.068a0.268 0.268 0 0 1-0.19 0.239A0.363 0.363 0 0 1 3.882 2.879a0.365 0.365 0 0 0-0.063-0.031 0.047 0.047 0 0 0-0.039 0.014 0.041 0.041 0 0 0 0.005 0.055 0.164 0.164 0 0 0 0.102 0.055 0.618 0.618 0 0 0 0.227 0.016 0.406 0.406 0 0 1 0.069-0.006c0.007 0 0.018 0.003 0.02 0.008a0.027 0.027 0 0 1-0.006 0.023 0.303 0.303 0 0 1-0.255 0.109c-0.102-0.012-0.205-0.015-0.306-0.029a0.892 0.892 0 0 1-0.188-0.045A0.455 0.455 0 0 1 3.154 2.667Zm-2.062 0.31a0.947 0.947 0 0 0-0.146-0.083 0.409 0.409 0 0 1-0.168-0.169 0.067 0.067 0 0 1-0.015-0.031C0.765 2.623 0.721 2.577 0.697 2.52a1.041 1.041 0 0 1-0.069-0.256 2.047 2.047 0 0 1-0.028-0.363C0.602 1.841 0.599 1.78 0.598 1.719h-0.002C0.595 1.63 0.595 1.541 0.593 1.452A1.26 1.26 0 0 1 0.663 1.037 0.378 0.378 0 0 1 0.711 0.944 0.964 0.964 0 0 1 0.999 0.66 0.601 0.601 0 0 1 1.204 0.591 2.084 2.084 0 0 1 1.733 0.537a1.897 1.897 0 0 1 0.328 0.03 2.118 2.118 0 0 1 0.545 0.198 0.522 0.522 0 0 1 0.253 0.413c0.009 0.061 0.005 0.124 0.016 0.185a4.45 4.45 0 0 1 0.018 0.669c0.002 0.062-0.004 0.124-0.005 0.186a1.515 1.515 0 0 1-0.108 0.476 1.239 1.239 0 0 1-0.118 0.262c-0.091 0.14-0.118 0.16-0.272 0.165-0.129 0.004-0.258 0-0.386 0.001-0.062 0.001-0.124 0.005-0.186 0.009a0.541 0.541 0 0 1-0.076 0.002 0.772 0.772 0 0 0-0.163 0 0.209 0.209 0 0 1-0.138-0.023A0.261 0.261 0 0 0 1.368 3.086 0.859 0.859 0 0 1 1.092 2.977Zm-0.494 0.384c0.02-0.144 0.005-0.146 0.141-0.138a1.884 1.884 0 0 0 0.343-0.006 2.167 2.167 0 0 1 0.27-0.008c0.123 0 0.246 0.005 0.37 0.006 0.051 0 0.101-0.008 0.152-0.01q0.109-0.004 0.218-0.003c0.206 0 0.413 0.005 0.62-0.002 0.1-0.003 0.2-0.001 0.3 0.001 0.171 0.003 0.343-0.017 0.516-0.023 0.094-0.003 0.189 0 0.283 0.005 0.136 0.007 0.273 0.017 0.411 0.027 0.015 0.001 0.031 0.001 0.046 0.003a0.044 0.044 0 0 1 0.039 0.04c0.007 0.067 0.014 0.134 0.017 0.201 0.002 0.039-0.013 0.056-0.046 0.057-0.114 0.007-0.228 0.013-0.341 0.019-0.11 0.006-0.219 0.015-0.329 0.017-0.304 0.006-0.607 0.017-0.908 0.006a4.297 4.297 0 0 0-0.465 0c-0.253 0.018-0.504-0.003-0.755-0.003-0.033 0-0.065-0.001-0.098-0.002l0 0.011c-0.242-0.01-0.482-0.02-0.721-0.031C0.605 3.525 0.597 3.516 0.595 3.458A0.582 0.582 0 0 1 0.598 3.361Z" fill="#ffffff" data-fill-palette-color="quaternary"></path><path d="M1.719 2.582A0.602 0.602 0 0 0 1.939 2.409c0.018-0.025 0.039-0.048 0.06-0.071 0.027-0.031 0.028-0.031 0.058 0.005a0.237 0.237 0 0 0 0.331 0.054 0.399 0.399 0 0 0 0.154-0.23 1.412 1.412 0 0 0 0.051-0.429c-0.011-0.123-0.025-0.246-0.034-0.369A0.622 0.622 0 0 0 2.428 1.033 0.39 0.39 0 0 0 2.082 0.881a0.149 0.149 0 0 0-0.071 0.03 0.298 0.298 0 0 0-0.05 0.048A0.05 0.05 0 0 1 1.891 0.967L1.853 0.942A0.768 0.768 0 0 0 1.407 0.8c-0.043 0-0.087-0.004-0.13-0.003a0.655 0.655 0 0 0-0.277 0.036 0.594 0.594 0 0 0-0.328 0.407 1.565 1.565 0 0 0-0.038 0.648A0.761 0.761 0 0 0 0.913 2.414c0.024 0.018 0.045 0.041 0.069 0.059a0.223 0.223 0 0 0 0.065 0.043 1.977 1.977 0 0 0 0.47 0.102A0.382 0.382 0 0 0 1.719 2.582Zm0.333-1.299c-0.006-0.022-0.028-0.042-0.009-0.065 0.002-0.002 0.027 0.022 0.043 0.032a0.064 0.064 0 0 1 0.027 0.083 0.047 0.047 0 0 0-0.002 0.021 0.259 0.259 0 0 0 0.047 0.21 0.076 0.076 0 0 1 0.004 0.108c-0.007 0.009-0.01 0.022-0.017 0.031a0.048 0.048 0 0 1-0.018 0.012l-0.005-0.01c-0.008-0.057-0.02-0.113-0.023-0.17A1.201 1.201 0 0 0 2.052 1.283Zm0.121 0.652c-0.018 0.026-0.038 0.049-0.058 0.073l-0.009 0.003-0.004-0.011c0.006-0.044 0.013-0.088 0.02-0.133 0.001-0.005 0.01-0.007 0.016-0.01C2.162 1.863 2.186 1.916 2.173 1.935Zm0.157 0.405c-0.028 0.008-0.056 0.014-0.068 0.017a0.181 0.181 0 0 1-0.175-0.147 0.644 0.644 0 0 1-0.005-0.086l0.005-0.011 0.008 0.009 0.003 0.011c0.045 0.145 0.08 0.175 0.212 0.182l0.022 0.002 0.011 0.004C2.339 2.328 2.336 2.338 2.33 2.34Zm-0.006-0.109a0.115 0.115 0 0 1-0.141-0.066 0.134 0.134 0 0 1 0.081-0.19 0.073 0.073 0 0 1 0.022-0.002 0.163 0.163 0 0 1 0.117 0.142A0.108 0.108 0 0 1 2.324 2.231Zm0.032-0.74a0.076 0.076 0 0 1-0.127 0.034 0.182 0.182 0 0 1-0.045-0.168A0.07 0.07 0 0 1 2.235 1.299c0.095-0.025 0.13 0.015 0.129 0.136A0.271 0.271 0 0 1 2.356 1.491Zm0.043 0.28a0.102 0.102 0 0 1-0.102 0.105c-0.042 0.005-0.088-0.05-0.087-0.107a0.094 0.094 0 0 1 0.088-0.102C2.358 1.665 2.396 1.704 2.399 1.771ZM2.227 0.98a0.288 0.288 0 0 1 0.061 0.024 0.455 0.455 0 0 1 0.193 0.318c0.023 0.129 0.027 0.261 0.039 0.387-0.006 0.093-0.011 0.179-0.018 0.265-0.002 0.028-0.008 0.056-0.012 0.085-0.006-0.002-0.016-0.002-0.018-0.006-0.019-0.046-0.074-0.075-0.054-0.139a0.158 0.158 0 0 1 0.011-0.021l0.021-0.043A0.182 0.182 0 0 0 2.436 1.653a0.118 0.118 0 0 1-0.017-0.113A0.396 0.396 0 0 0 2.434 1.358a0.159 0.159 0 0 0-0.077-0.128c-0.039-0.017-0.046-0.049-0.045-0.089A0.15 0.15 0 0 0 2.264 1.022c-0.014-0.013-0.03-0.023-0.046-0.035Zm0.015 0.162a0.058 0.058 0 0 1-0.059 0.056 0.068 0.068 0 0 1-0.074-0.068c-0.001-0.038 0.023-0.06 0.065-0.06A0.062 0.062 0 0 1 2.242 1.142ZM2.015 0.997a0.164 0.164 0 0 1 0.127-0.044 0.075 0.075 0 0 1 0.016 0.019c0.001 0.003-0.007 0.016-0.012 0.017a0.164 0.164 0 0 0-0.119 0.129c-0.002 0.006-0.011 0.014-0.015 0.013-0.006-0.001-0.012-0.009-0.016-0.016C1.973 1.06 1.978 1.03 2.015 0.997ZM1.122 2.45a0.275 0.275 0 0 1-0.116-0.063 0.854 0.854 0 0 1-0.203-0.22 0.762 0.762 0 0 1-0.063-0.14 1.189 1.189 0 0 1-0.056-0.361c0.009-0.094 0.015-0.228 0.038-0.359a0.527 0.527 0 0 1 0.338-0.418A0.43 0.43 0 0 1 1.209 0.864 1.243 1.243 0 0 1 1.64 0.912a0.778 0.778 0 0 1 0.142 0.063 0.336 0.336 0 0 1 0.124 0.136 1.131 1.131 0 0 1 0.112 0.371 1.478 1.478 0 0 1-0.037 0.692A0.504 0.504 0 0 1 1.569 2.539a1.421 1.421 0 0 1-0.29-0.04A0.929 0.929 0 0 0 1.122 2.45Z" fill="#ffffff" data-fill-palette-color="quaternary"></path><path d="M1.726 2.144a0.907 0.907 0 0 0 0.151-0.526 0.838 0.838 0 0 0-0.09-0.376 0.237 0.237 0 0 0-0.121-0.117A0.658 0.658 0 0 0 1.199 1.078a0.423 0.423 0 0 0-0.234 0.131 0.687 0.687 0 0 0-0.136 0.281 0.869 0.869 0 0 0 0.017 0.432 0.438 0.438 0 0 0 0.213 0.296 1.056 1.056 0 0 0 0.122 0.047 0.568 0.568 0 0 0 0.454-0.039A0.222 0.222 0 0 0 1.726 2.144Zm-0.276 0.061c-0.032 0.005-0.065 0.005-0.097 0.007a0.45 0.45 0 0 1-0.26-0.073 0.406 0.406 0 0 1-0.174-0.255 0.981 0.981 0 0 1-0.016-0.399 0.418 0.418 0 0 1 0.306-0.332 1.722 1.722 0 0 1 0.204-0.022 0.441 0.441 0 0 1 0.23 0.065 0.266 0.266 0 0 1 0.117 0.141 0.782 0.782 0 0 1 0.045 0.361 0.801 0.801 0 0 1-0.076 0.304A0.359 0.359 0 0 1 1.45 2.205Z" fill="#ffffff" data-fill-palette-color="quaternary"></path><path d="M1.66 1.379a0.331 0.331 0 0 0-0.198-0.121 0.672 0.672 0 0 0-0.151-0.008 0.323 0.323 0 0 0-0.274 0.184 0.446 0.446 0 0 0-0.057 0.257c0 0.038-0.001 0.066 0.001 0.095a0.433 0.433 0 0 0 0.086 0.221 0.348 0.348 0 0 0 0.439 0.086 0.359 0.359 0 0 0 0.156-0.163 0.772 0.772 0 0 0 0.052-0.418A0.231 0.231 0 0 0 1.66 1.379Zm-0.078 0.546a0.271 0.271 0 0 1-0.283 0.136A0.256 0.256 0 0 1 1.083 1.881 0.49 0.49 0 0 1 1.119 1.42a0.157 0.157 0 0 1 0.064-0.062 0.364 0.364 0 0 1 0.345 0.013 0.234 0.234 0 0 1 0.121 0.216c0 0.016 0.002 0.033 0.004 0.062A0.472 0.472 0 0 1 1.582 1.925Z" fill="#ffffff" data-fill-palette-color="quaternary"></path></svg></g></svg></g><g></g></svg></g></svg></g></svg></g></svg></g><defs></defs></svg><rect width="333.90454557049503" height="333.90454557049503" fill="none" stroke="none" visibility="hidden"></rect></g></svg></g></svg>